<svg xmlns="http://www.w3.org/2000/svg" width="32" height="32" fill="none" viewBox="0 0 32 32">
  <path fill="#5F6A81" d="M5.192 4.936a.097.097 0 0 0-.136-.088c-.21.092-.624.31-.955.714A.45.45 0 0 0 4 5.848v23.126c0 .116.054.225.146.297l.875.707c.07.053.171.005.171-.082V4.936Z"/>
  <path fill="url(#a)" d="M11.194 5.66a55.46 55.46 0 0 0-1.275 2.062c-.408.682-.834 1.386-1.272 2.081l.021.079.124.003c.309-.142.617-.285.925-.437 1.549-.744 3.136-1.513 4.432-1.566l.135-.059v-.08a21.905 21.905 0 0 0-2.814-2.16l-.136-.022-.14.1Z"/>
  <path fill="url(#b)" d="M21.08 8.002c-.507.552-.987 1-1.615 1.557l-.02.083.173.138c1.25.528 2.35.793 3.352.79.368 0 .73-.039 1.078-.115l.131-.088-.022-.088a18.114 18.114 0 0 1-2.808-2.253l-.152-.07-.117.046Z"/>
  <path fill="url(#c)" d="M23.583 13.122c-.097-.005-.192 0-.289-.005l-.12.115c.029.29.141.576.334.828.218.28.531.427.895.43.448 0 .887-.24 1.15-.642.252-.336.383-.694.376-1.05l-.121-.085a6.142 6.142 0 0 1-2.225.41Z"/>
  <path fill="url(#d)" d="M24.052 10.457c-.626.975-1.283 1.805-1.997 2.512l-.008.09.154.08c.352.052.63.075.977.088l.116-.116c-.02-.357.093-.713.306-1.012.245-.353.613-.553 1.02-.548a.97.97 0 0 1 .55.156c.38.239.602.599.64 1.014l.122.074c.385-.152.771-.295 1.083-.467l.207-.188-.055-.103a32.624 32.624 0 0 1-2.84-1.647l-.145-.02-.13.087Z"/>
  <path fill="url(#e)" d="M21.93 13.1c-.713.685-1.42 1.205-2.145 1.728l-.017.084.169.152c1.195.636 2.1.901 3.081.901.463.003.945-.06 1.474-.183l.154-.093-.003-.09a25.016 25.016 0 0 1-2.449-2.46l-.14-.083-.124.044Z"/>
  <path fill="url(#f)" d="M19.343 9.657c-.604.524-1.209.966-1.936 1.497l-.01.084.203.177c.274.168.588.33.902.483l.114-.077c-.066-.392-.006-.708.171-.856a.508.508 0 0 1 .348-.12c.396-.002.887.373 1.293.964.208.29.337.611.387.892l.075.092.064.084c.348.096.671.175.97.227l.13-.049-.002-.082c-.798-.928-1.593-1.98-2.44-3.188l-.167-.142-.102.014Z"/>
  <path fill="#0B0700" d="M20.27 13.802c-.444 0-1.01-.409-1.408-1.016a2.586 2.586 0 0 1-.357-.886l.053-.04.054-.04c.542.262 1.348.62 2.204.885l.073.085.067.083c.02.374-.109.67-.369.84a.568.568 0 0 1-.316.089Z"/>
  <path fill="url(#g)" d="M8.512 10.012c-.834 1.291-1.629 2.496-2.69 3.475l-.044.127.139.042c.452-.061.828-.152 1.253-.26l.131-.158c.037-.327.166-.647.354-.914.565-.801 1.242-1.154 1.672-1.152a.83.83 0 0 1 .348.075c.307.15.473.46.468.874l.122.064a16.5 16.5 0 0 0 1.128-.645l.189-.187-.031-.076a54.99 54.99 0 0 1-2.76-1.393l-.124-.003-.155.131Z"/>
  <path fill="url(#h)" d="m11.576 11.353-.182.186a50.33 50.33 0 0 0-.62 1.08c-.536.947-1.136 2.024-1.956 3.16l.02.08.137.012c.589-.24 1.205-.585 1.86-.946 1.167-.631 2.476-1.362 3.812-1.588l.185-.085v-.081c-.798-.62-1.718-1.152-3.133-1.824l-.123.006Z"/>
  <path fill="url(#i)" d="m11.682 17.314-.17.188c-.781 1.411-1.599 2.859-2.692 4.264l.011.08.147.01c1.035-.321 1.986-.856 2.906-1.386.96-.546 1.87-1.075 2.803-1.31l.171-.106-.002-.082a18.404 18.404 0 0 0-3.052-1.676l-.122.018Z"/>
  <path fill="url(#j)" d="m13.291 16.307-.068.093-.058.091c.013.398.173.742.449.965.286.221.638.34 1.034.338.468-.002.929-.178 1.224-.47.35-.343.514-.81.457-1.283l-.076-.08-.073-.07a5.407 5.407 0 0 0-.718-.061 5.769 5.769 0 0 0-2.171.477Z"/>
  <path fill="url(#k)" d="M14.648 13.34c-1.185 1.113-2.135 2.357-2.994 3.892l.031.077.122-.016c.48-.319.945-.614 1.361-.802l.06-.09.059-.098c.04-.381.215-.75.501-1.062.323-.348.749-.547 1.15-.55.37.001.714.178.943.492.14.194.246.434.305.71l.071.071.072.072c.424.085.832.284 1.188.47l.11-.015.02-.084c-.879-1.363-1.702-2.328-2.665-3.112l-.15-.04-.184.085Z"/>
  <path fill="url(#l)" d="m18.777 17.035-.11.068c.052.314.184.65.378.957.416.673.964 1.116 1.367 1.117a.415.415 0 0 0 .272-.079c.25-.16.386-.521.381-.96l-.064-.076-.066-.088c-.784-.251-1.493-.597-2.158-.939Z"/>
  <path fill="url(#m)" d="m5.778 22.21.051.074c.167.019.355.035.55.03.64.007 1.435-.128 2.3-.363l.161-.102-.022-.088a11.933 11.933 0 0 1-2.904-2.36l-.131-.053-.005 2.862Z"/>
  <path fill="url(#n)" d="M17.516 16.503c-1.056.85-1.93 1.654-2.667 2.472l.01.08.14.034a6.35 6.35 0 0 1 1.166-.122c1.569 0 2.836.71 3.797 1.243l.104-.003.02-.085c-.748-1.046-1.465-2.177-2.29-3.48l-.167-.154-.113.015Z"/>
  <path fill="url(#o)" d="M26.735 17.479a24.358 24.358 0 0 1-1.832 3.258l.022.09.139.023c.605-.151 1.317-.43 1.981-.763l.03-.086a14.424 14.424 0 0 1-.212-2.652l-.128.13Z"/>
  <path fill="url(#p)" d="M22.112 18.382c-.644.613-1.281 1.206-2.029 1.743l-.015.084.19.156a6.35 6.35 0 0 0 2.965.722c.52 0 1.041-.056 1.572-.178l.127-.082-.013-.09a14.848 14.848 0 0 1-2.533-2.328l-.14-.072-.124.045Z"/>
  <path fill="url(#q)" d="m7.408 25.11-.117.123c.058.417.278.798.61 1.015.259.167.55.267.854.26.56.005 1.065-.325 1.425-.901.249-.414.373-.818.363-1.201l-.128-.073a8.782 8.782 0 0 1-3.007.777Z"/>
  <path fill="url(#r)" d="M18.747 10.925c-.215.175-.257.543-.193.934.707.34 1.528.69 2.332.934-.033-.325-.173-.684-.4-1.02-.403-.588-.926-.987-1.354-.989a.592.592 0 0 0-.385.141Z"/>
  <path fill="url(#s)" d="m19.253 22.203-.105.092c.065.334.225.707.455 1.048.382.596.99.909 1.394.899a.483.483 0 0 0 .273-.065c.228-.144.35-.465.334-.839l-.07-.086-.068-.086c-.383-.133-.75-.312-1.14-.487-.331-.152-.675-.313-1.073-.476Z"/>
  <path fill="url(#t)" d="m23.476 18.332-.118.124c.027.363.184.674.467.903.209.166.47.261.746.26.426-.005.815-.235 1.068-.642.212-.338.316-.744.3-1.109l-.13-.074c-.79.325-1.55.498-2.333.538Z"/>
  <path fill="url(#u)" d="M17.281 11.243c-.798.579-1.633 1.184-2.455 1.928l.003.081.153.046c.12-.02.244-.02.367-.02 1.422-.001 2.78.77 3.865 1.393.149.087.298.174.445.251l.112-.008.017-.084c-.2-.322-.399-.645-.596-.957-.54-.866-1.053-1.705-1.593-2.459l-.206-.179-.112.008Z"/>
  <path fill="url(#v)" d="M15.836 17.28c-.517.509-1.516.653-2.189.129-.285-.235-.43-.604-.417-1.01-.486.211-1.022.552-1.544.91a18.35 18.35 0 0 1 3.173 1.745c.714-.793 1.615-1.637 2.767-2.564-.438-.23-.883-.439-1.37-.53.084.49-.07.97-.42 1.32Z"/>
  <path fill="url(#w)" d="M8.671 15.983c-.79 1.09-1.621 2.168-2.84 3.24l-.05.127.13.049c.475-.018.855-.051 1.291-.113l.127-.151a2.04 2.04 0 0 1 .46-1.056c.449-.524.985-.833 1.463-.831a.986.986 0 0 1 .533.152c.27.155.415.411.434.758l.114.071c.383-.193.766-.446 1.176-.724l.17-.198-.024-.076a26.09 26.09 0 0 1-2.678-1.358l-.145-.016-.16.126Z"/>
  <path fill="url(#x)" d="m5.785 16.48.05.06.234.012c.725 0 1.599-.195 2.603-.569l.16-.125-.013-.078c-1.097-.642-2.144-1.412-2.901-2.13l-.138-.038.005 2.868Z"/>
  <path fill="url(#y)" d="M22.97 5.226a11.715 11.715 0 0 1-1.785 2.624l.009.11.154.064c.227.013.466.034.692.038.111-.009.214-.006.325-.014l.103-.118a1.403 1.403 0 0 1 .14-.86c.21-.448.642-.74 1.082-.743.152-.005.312.03.456.097.4.186.66.506.75.914l.134.069a6.41 6.41 0 0 0 .935-.578l.153-.186-.076-.089c-.927-.33-2.067-.899-2.796-1.393l-.146-.017-.13.082Z"/>
  <path fill="url(#z)" d="M19.964 20.21a18.94 18.94 0 0 0-1.962 1.547l-.005.091.171.103c.335.097.63.21.972.345l.108-.088c-.059-.344-.01-.605.132-.73a.498.498 0 0 1 .33-.114c.378-.002.876.33 1.32.893.287.357.392.673.432.909l.076.088.067.09c.38.12.705.167 1.08.196l.136-.043-.014-.078c-.85-.84-1.688-1.843-2.55-3.055l-.191-.16-.102.006Z"/>
  <path fill="url(#A)" d="M24.489 15.781a26.393 26.393 0 0 1-2.252 2.469l-.004.091.144.067c.25.03.511.057.767.055l.214-.005.122-.121c.01-.304.131-.616.333-.872.307-.363.69-.577 1.069-.58a.987.987 0 0 1 .624.24c.168.144.279.378.307.666l.127.08c.267-.115.53-.25.794-.383l.13-.143-.049-.103a23.292 23.292 0 0 1-2.05-1.527l-.118-.03-.158.096Z"/>
  <path fill="url(#B)" d="M27.013 12.326a53.502 53.502 0 0 1-2.372 3.264l.005.09.118.031a10.04 10.04 0 0 0 2.224-.88l.083-.115c.116-.826.155-1.68.146-2.575l-.204.185Z"/>
  <path fill="url(#C)" d="m7.298 13.237-.132.158c-.008.45.14.822.408 1.028.18.127.382.188.593.184l.002.01c.582-.002 1.214-.46 1.676-1.236.259-.408.4-.818.421-1.197l-.117-.064c-.973.505-1.923.839-2.85 1.117Z"/>
  <path fill="url(#D)" d="m13.084 10.526-.073.088-.063.086c.011.388.18.728.479 1.004.312.284.758.448 1.22.448.429.005.82-.146 1.075-.394.271-.283.4-.683.386-1.092l-.07-.086-.08-.085a4.708 4.708 0 0 0-1.378-.216 5.156 5.156 0 0 0-1.496.247Z"/>
  <path fill="url(#E)" d="m5.776 10.738.06.061c.632-.014 1.59-.298 2.67-.783l.163-.135-.022-.077c-1.052-.588-1.99-1.232-2.736-1.896l-.128-.03-.007 2.86Z"/>
  <path fill="url(#F)" d="M19.653 14.924a6.161 6.161 0 0 0-.231.166c-.565.398-1.148.809-1.779 1.308l-.016.093.166.147c.134.071.268.142.404.223.156.078.313.165.469.243l.111-.078c-.042-.337.02-.6.181-.755a.608.608 0 0 1 .413-.183c.309.004.822.271 1.28 1.042.153.26.25.549.285.847l.064.081.064.082c.355.108.696.188 1.043.237l.127-.039.008-.082c-.94-1.093-1.715-2.26-2.31-3.192l-.167-.147-.112.007Z"/>
  <path fill="url(#G)" d="M14.696 19.159c-1.33 1.492-2.04 2.851-2.754 4.251l.023.078.112-.006c.41-.296.823-.633 1.28-.884l.057-.1.067-.102c.024-.31.175-.668.373-.993.385-.587.91-.94 1.406-.934.29-.003.543.102.782.31.238.2.388.502.425.812l.072.06.073.071c.477.01.908.058 1.273.145l.11-.026.007-.083a17.953 17.953 0 0 0-2.997-2.676l-.15-.028-.159.105Z"/>
  <path fill="url(#H)" d="M16.735 5.847c-.693.447-1.664 1.112-2.447 1.887l.003.083.15.061c1.297.047 2.58.67 3.823 1.281.355.17.721.346 1.076.506l.11-.016.014-.095a21.092 21.092 0 0 1-.652-.987c-.506-.777-1.075-1.656-1.736-2.521l-.228-.198-.113-.001Z"/>
  <path fill="url(#I)" d="M25.964 6.834c-.617 1.374-1.21 2.502-1.802 3.448l.014.088.158.027c.808-.202 1.727-.48 2.49-.918l.046-.098c-.267-1.13-.602-2.038-.752-2.742l-.154.195Z"/>
  <path fill="url(#J)" d="M9.046 6.52c-.557.313-1.124.628-1.807.877l-.132.176c.004.365.134.66.35.815.192.15.403.211.648.217.583-.004 1.214-.454 1.64-1.198.243-.423.372-.892.35-1.306l-.128-.075c-.325.164-.628.334-.921.493Z"/>
  <path fill="url(#K)" d="m24.143 23.392-.099.133a1.379 1.379 0 0 0 1.383 1.114c.46.006.885-.208 1.081-.56.218-.355.28-.805.174-1.208l-.154-.074c-.684.232-1.498.472-2.385.595Z"/>
  <path fill="url(#L)" d="M14.148 7.884c-.895.917-1.742 2.029-2.595 3.393l.021.078.132-.008c.451-.282.81-.492 1.249-.652l.06-.079.07-.09c.036-.327.172-.668.412-.932.255-.296.591-.452.95-.45.388-.003.784.196 1.111.564.215.223.345.498.395.783l.085.09.062.082c.408.136.752.331 1.186.585l.11-.015.01-.082a22.682 22.682 0 0 0-2.963-3.276l-.15-.05-.145.06Z"/>
  <path fill="url(#M)" d="M24.796 20.91a18.968 18.968 0 0 1-1.988 2.501l.012.088.14.062h.214c.295 0 .568-.006.869-.037l.103-.134a1.495 1.495 0 0 1 .23-.901c.23-.322.57-.508.955-.51.224 0 .445.06.655.182.253.136.436.361.536.638l.153.08c.116-.046.233-.082.338-.127.273-.086.485-.165.71-.235l.09-.083-.097-.107a14.587 14.587 0 0 1-2.653-1.472l-.137-.032-.13.088Z"/>
  <path fill="url(#N)" d="m22.47 7.93-.101.118c.066.326.243.605.505.81.3.242.592.359.879.362.487-.003.916-.354 1.16-.972a1.59 1.59 0 0 0 .115-.842l-.138-.075c-.736.35-1.548.544-2.42.599Z"/>
  <path fill="url(#O)" d="M23.772 17.433c-.226.27-.36.62-.352.968.767-.034 1.585-.214 2.459-.572-.023-.307-.13-.573-.338-.745a1.02 1.02 0 0 0-.665-.26c-.376 0-.784.206-1.104.61Z"/>
  <path fill="url(#P)" d="M20.068 20.207c.782-.552 1.434-1.158 2.164-1.864a8.752 8.752 0 0 1-1.228-.282c.029.447-.103.835-.347.987-.401.273-1.095-.27-1.561-1.021a2.663 2.663 0 0 1-.372-.955 49.415 49.415 0 0 0-1.095-.58c.875 1.37 1.65 2.604 2.44 3.715Z"/>
  <path fill="url(#Q)" d="M13.446 9.552a1.725 1.725 0 0 0-.427 1.061 4.718 4.718 0 0 1 3.017-.037 1.7 1.7 0 0 0-.427-.91c-.347-.39-.762-.586-1.173-.584-.358-.006-.706.153-.99.47Z"/>
  <path fill="url(#R)" d="m13.476 22.392-.06.101-.06.102c.02.464.31.83.77 1.041.202.088.408.134.619.138.516-.005 1.034-.3 1.467-.844.28-.357.423-.78.397-1.213l-.072-.063-.07-.053c-.98.002-1.978.256-2.991.791Z"/>
  <path fill="url(#S)" d="M24.326 22.462c-.174.248-.28.619-.231.99.94-.11 1.786-.373 2.51-.62a1.302 1.302 0 0 0-.583-.722 1.439 1.439 0 0 0-.69-.197 1.208 1.208 0 0 0-1.006.55Z"/>
  <path fill="url(#T)" d="M22.69 23.546c-.725.747-1.411 1.332-2.144 1.793l-.028.093c1.495.807 3.219.91 5.342.24l-.01-.078a12.29 12.29 0 0 1-2.886-2.034l-.15-.06-.124.046Z"/>
  <path fill="url(#U)" d="m11.97 23.486-.176.203a1.813 1.813 0 0 0-.125.277c-.627 1.242-1.295 2.49-2.536 3.852l.01.079c2.95-.602 3.901-1.846 6.34-2.923l-.031-.076a42.312 42.312 0 0 0-1.62-.711c-.561-.248-1.155-.432-1.761-.714l-.1.013Z"/>
  <path fill="url(#V)" d="M8.68 21.953c-.82 1.034-1.611 2.015-2.857 3.014l-.044.112.148.077c.29.033.565.049.846.052.166-.007.338.04.525.028l.105-.132a1.545 1.545 0 0 1 .288-.938c.344-.514.948-.841 1.531-.842.224-.002.43.046.628.14.321.168.531.48.566.878l.124.073a9.14 9.14 0 0 0 1.254-.724l.174-.197-.026-.08c-1.231-.565-2.145-1.083-2.965-1.551l-.142-.023-.155.113Z"/>
  <path fill="url(#W)" d="M10.208 12.15c-.012.36-.154.77-.413 1.204-.64 1.051-1.557 1.475-2.185 1.021-.281-.214-.409-.62-.375-1.053-.525.126-.923.225-1.456.288.694.666 1.77 1.506 3.053 2.25 1.253-1.727 2.005-3.323 2.74-4.503a19.4 19.4 0 0 1-1.364.793Z"/>
  <path fill="url(#X)" d="M13.75 2.774c-.767.508-1.563 1.389-2.441 2.701l.023.09.138.02c.45-.125.82-.219 1.194-.292l.063-.07.052-.07c-.002-.368.124-.713.352-.93.237-.228.49-.346.76-.343.364 0 .759.21 1.072.574.198.218.343.494.425.77l.086.09.074.08c.489.146.865.298 1.179.458l.124-.007.018-.085c-.986-1.273-1.958-2.302-2.758-2.935l-.21-.083-.15.032Z"/>
  <path fill="url(#Y)" d="M25.866 12.76c.018.333-.103.706-.363 1.049-.482.73-1.47.83-1.942.215a1.605 1.605 0 0 1-.331-.85 10.01 10.01 0 0 1-1.175-.117c.848.989 1.688 1.857 2.586 2.625.787-.977 1.618-2.144 2.58-3.543-.444.277-.944.46-1.355.62Z"/>
  <path fill="url(#Z)" d="M17.878 21.873a13.001 13.001 0 0 0-2.42 3.023l.023.08c2.173-.96 4.138-.032 5.037.454l.02-.087c-.62-1.225-1.457-2.343-2.368-3.387l-.178-.11-.114.027Z"/>
  <path fill="url(#aa)" d="m7.332 19.142-.13.136c-.012.405.128.755.375.961.223.189.507.284.808.281.539.004 1.071-.31 1.448-.865.314-.471.503-.987.5-1.421l-.118-.067a9.905 9.905 0 0 1-2.883.975Z"/>
  <path fill="url(#ab)" d="M13.745 15.208c-.337.361-.507.793-.517 1.19 1.091-.482 2.098-.597 3.033-.431a1.883 1.883 0 0 0-.33-.825 1.208 1.208 0 0 0-.988-.507c-.417 0-.855.196-1.197.573Z"/>
  <path fill="url(#ac)" d="M27.715 22.514c-.39 1.069-1.138 2.316-1.867 3.075l.012.08c1.915-.608 3.106-.694 3.106-.694s-.564-1.204-1.15-2.549l-.101.088Z"/>
  <path fill="url(#ad)" d="M5.782 27.8s1.467.47 3.356.093l-.012-.08a19.098 19.098 0 0 1-3.199-2.655l-.147-.071.002 2.713Z"/>
  <path fill="#0B0700" d="M9.873 23.412c-.777-.38-1.757.024-2.236.722a1.584 1.584 0 0 0-.287 1.037 8.89 8.89 0 0 0 3.13-.799c-.026-.439-.25-.785-.607-.96Z"/>
  <path fill="url(#ae)" d="M10.476 24.375c.03.345-.084.76-.346 1.196-.616 1.005-1.564 1.047-2.192.625a1.34 1.34 0 0 1-.583-1.028c-.523.033-1.006-.01-1.573-.08a19.868 19.868 0 0 0 3.353 2.81c1.468-1.573 2.124-3.013 2.826-4.41a8.225 8.225 0 0 1-1.485.887Z"/>
  <path fill="url(#af)" d="M26.605 22.835c.12.399.071.85-.144 1.215-.33.562-1.203.714-1.796.3-.364-.243-.534-.573-.57-.892a6.961 6.961 0 0 1-1.279.036c1.518 1.49 3.045 2.178 3.045 2.178.715-.748 1.536-2.046 1.95-3.247-.345.109-.736.244-1.206.41Z"/>
  <path fill="url(#ag)" d="M7.744 18.048a2.058 2.058 0 0 0-.486 1.162 9.942 9.942 0 0 0 3.015-1.011c0-.362-.136-.664-.458-.85a1.133 1.133 0 0 0-.563-.163c-.499.009-1.046.316-1.508.862Z"/>
  <path fill="url(#ah)" d="m12.778 5.155-.11.145c.037.415.23.776.55 1.022.334.266.76.422 1.154.421.35.005.651-.112.87-.336.26-.252.361-.61.304-1.012l-.078-.086-.078-.086a5.37 5.37 0 0 0-1.402-.171 7.237 7.237 0 0 0-1.21.103Z"/>
  <path fill="url(#ai)" d="M13.808 21.376c-.244.377-.391.782-.394 1.117 1.019-.557 2.063-.864 3.124-.84-.026-.33-.17-.684-.45-.918a1.235 1.235 0 0 0-.828-.33c-.533.003-1.066.37-1.452.97Z"/>
  <path fill="url(#aj)" d="M18.922 16.227c-.194.188-.245.498-.196.84.716.374 1.46.734 2.274.99a2.032 2.032 0 0 0-.3-.952c-.328-.55-.845-1.074-1.325-1.073a.63.63 0 0 0-.453.195Z"/>
  <path fill="url(#ak)" d="M20.522 25.425c.83-.505 1.558-1.159 2.292-1.926a4.879 4.879 0 0 1-1.272-.24c.034.402-.097.734-.297.862-.323.205-1.129-.107-1.595-.81a3.032 3.032 0 0 1-.452-1.059 9.133 9.133 0 0 0-1.2-.403c1.131 1.276 1.981 2.528 2.524 3.576Z"/>
  <path fill="url(#al)" d="M8.664 9.882a56.857 56.857 0 0 0 2.91 1.473c.858-1.39 1.737-2.548 2.713-3.531-1.612 0-3.72 1.175-5.623 2.058Z"/>
  <path fill="url(#am)" d="M22.24 18.34a28.899 28.899 0 0 0 2.4-2.654c-1.834.47-3.115.192-4.869-.773.718 1.15 1.514 2.319 2.468 3.427Z"/>
  <path fill="url(#an)" d="M26.863 9.385c-.827.499-1.838.78-2.688.982a35.266 35.266 0 0 0 3.04 1.767 12.656 12.656 0 0 0-.352-2.75Z"/>
  <path fill="url(#ao)" d="M24.92 20.83a14.56 14.56 0 0 0 2.89 1.6 11.022 11.022 0 0 1-.732-2.429c-.62.322-1.416.652-2.157.828Z"/>
  <path fill="url(#ap)" d="M24.642 15.684a20.923 20.923 0 0 0 2.224 1.663 20.26 20.26 0 0 1 .204-2.633c-.776.44-1.703.786-2.428.97Z"/>
  <path fill="url(#aq)" d="M22.05 13.059c.706-.69 1.406-1.53 2.133-2.692-1.449.354-3.046.022-4.74-.72.898 1.289 1.743 2.416 2.608 3.412Z"/>
  <path fill="url(#ar)" d="M15.67 11.717c-.484.498-1.553.531-2.207-.056a1.298 1.298 0 0 1-.442-1.05c-.499.169-.925.417-1.443.739 1.303.62 2.343 1.186 3.25 1.9.854-.779 1.72-1.399 2.564-2.016-.478-.279-.878-.507-1.358-.654.048.427-.088.848-.365 1.137Z"/>
  <path fill="url(#as)" d="M10.279 18.194c0 .454-.202.985-.498 1.427-.637.942-1.595 1.04-2.161.573-.265-.216-.388-.583-.36-.98-.501.078-.947.108-1.476.128.836.946 1.81 1.772 3.056 2.501 1.148-1.464 1.974-2.955 2.84-4.532-.485.337-.943.65-1.401.883Z"/>
  <path fill="url(#at)" d="m8.466 4.067-.162.163c-.733 1.277-1.732 2.782-2.469 3.515l-.054.129.129.043c.478-.095.82-.211 1.2-.343l.06-.088.07-.09c.021-.356.172-.749.4-1.092.407-.609.998-.99 1.54-.993a.893.893 0 0 1 .445.112c.187.096.31.31.34.609l.123.074a6.731 6.731 0 0 1 1.105-.44l.138-.11-.02-.077A17.316 17.316 0 0 0 8.585 4.05l-.12.016Z"/>
  <path fill="url(#au)" d="M19.768 14.91c.792-.56 1.544-1.114 2.281-1.847a8.237 8.237 0 0 1-1.163-.277c.042.377-.058.693-.329.88-.403.266-1.158-.167-1.64-.918a2.381 2.381 0 0 1-.359-.889c-.45-.222-.847-.43-1.16-.62.796 1.092 1.544 2.362 2.37 3.671Z"/>
  <path fill="url(#av)" d="M18.424 4.768c-.42.218-.773.477-1.148.729l-.413.267-.01.082.223.202c.145.081.704.43.883.536l.102-.074c-.113-.378-.114-.68.013-.798.072-.07.15-.1.251-.104.379 0 .877.497 1.219.965.24.33.42.68.515.99l.095.097.084.09c.3.1.563.217.833.25l.127-.046-.014-.1c-.312-.33-.639-.77-.99-1.237-.415-.56-.91-1.178-1.438-1.742l-.19-.116-.142.01Z"/>
  <path fill="url(#aw)" d="M25.877 17.83c.03.358-.078.766-.295 1.117-.442.725-1.246.752-1.72.362a1.184 1.184 0 0 1-.442-.908c-.407.015-.8-.013-1.185-.062a15.568 15.568 0 0 0 2.687 2.49 24.907 24.907 0 0 0 1.942-3.485 10.64 10.64 0 0 1-.987.485Z"/>
  <path fill="url(#ax)" d="m18.064 6.502-.098.089c.08.26.242.554.463.872.399.576.987 1.159 1.405 1.157a.38.38 0 0 0 .309-.16c.12-.169.152-.412.1-.71l-.089-.085-.092-.107c-.675-.257-1.335-.646-1.998-1.056Z"/>
  <path fill="url(#ay)" d="M19.333 21.43c-.166.155-.207.459-.137.819.926.368 1.595.76 2.338 1.01-.033-.314-.166-.676-.456-1.038-.48-.612-.982-.924-1.368-.924a.637.637 0 0 0-.377.133Z"/>
  <path fill="url(#az)" d="M23.544 12.067c-.232.324-.34.721-.307 1.11a6.373 6.373 0 0 0 2.633-.415c-.022-.45-.25-.843-.665-1.11a1.086 1.086 0 0 0-.585-.162 1.31 1.31 0 0 0-1.076.577Z"/>
  <path fill="url(#aA)" d="m5.779 22.215.001 2.868c1.368-1.093 2.222-2.178 3.053-3.24-1.19.353-2.292.494-3.054.372Z"/>
  <path fill="url(#aB)" d="m5.78 10.741-.001 2.87c1.16-1.035 2-2.36 2.887-3.73-1.03.476-2.153.86-2.885.86Z"/>
  <path fill="url(#aC)" d="m5.783 16.48-.004 2.865c1.355-1.175 2.246-2.36 3.058-3.484-1.354.527-2.346.673-3.054.618Z"/>
  <path fill="url(#aD)" d="M8.834 21.847a36.446 36.446 0 0 0 3.136 1.646c.693-1.366 1.434-2.82 2.892-4.434-1.96.43-3.827 2.142-6.028 2.788Z"/>
  <path fill="url(#aE)" d="M8.839 15.861a27.02 27.02 0 0 0 2.841 1.447c.998-1.808 2.068-3.062 3.152-4.058-2.203.298-4.264 1.935-5.993 2.611Z"/>
  <path fill="url(#aF)" d="M22.812 23.502a19.42 19.42 0 0 0 2.105-2.678c-1.504.362-3.198.306-4.849-.621.852 1.215 1.751 2.323 2.744 3.299Z"/>
  <path fill="url(#aG)" d="M14.832 13.253c1.01.794 1.876 1.782 2.794 3.24.767-.606 1.473-1.096 2.143-1.577-1.168-.646-2.739-1.703-4.42-1.7-.17-.004-.347.01-.517.037Z"/>
  <path fill="url(#aH)" d="M14.286 7.82a22.156 22.156 0 0 1 3.103 3.418c.714-.511 1.401-1.01 2.056-1.596-1.644-.718-3.384-1.82-5.159-1.823Z"/>
  <path fill="url(#aI)" d="M14.861 19.055c1.258.87 2.29 1.834 3.139 2.795.714-.664 1.424-1.186 2.063-1.647-.99-.553-2.228-1.295-3.898-1.29a5.932 5.932 0 0 0-1.303.142Z"/>
  <path fill="url(#aJ)" d="M16.157 22.896c-.54.699-1.27 1.012-2.006.687-.436-.202-.745-.567-.74-1.086-.471.26-.944.633-1.448 1 1.217.55 2.456.995 3.518 1.48a12.916 12.916 0 0 1 2.516-3.135 6.049 6.049 0 0 0-1.453-.186c.045.449-.097.888-.387 1.24Z"/>
  <path fill="url(#aK)" d="M7.604 12.29a2.165 2.165 0 0 0-.372 1.033 13.83 13.83 0 0 0 2.976-1.174c.01-.443-.159-.788-.502-.954a.814.814 0 0 0-.38-.08c-.621-.002-1.316.61-1.722 1.176Z"/>
  <path fill="url(#aL)" d="M22.554 7.043c-.152.315-.2.644-.14.945a6.626 6.626 0 0 0 2.547-.614 1.336 1.336 0 0 0-.794-.998.991.991 0 0 0-.476-.105c-.48-.005-.918.306-1.137.772Z"/>
  <path fill="url(#aM)" d="M13.094 4.173c-.26.248-.39.65-.372 1.057 1.012-.177 1.879-.166 2.744.081a2.007 2.007 0 0 0-.455-.9c-.3-.351-.705-.592-1.123-.595-.27.003-.544.11-.794.357Z"/>
  <path fill="url(#aN)" d="M18.026 5.669c-.156.153-.141.497-.007.878.687.421 1.397.85 2.136 1.11-.088-.345-.296-.746-.564-1.12-.367-.503-.867-.99-1.27-.988a.444.444 0 0 0-.295.12Z"/>
  <path fill="url(#aO)" d="M7.586 6.272c-.263.4-.405.834-.418 1.217 1.12-.405 1.923-.96 2.856-1.42-.019-.327-.153-.585-.371-.707-.137-.072-.3-.11-.468-.115-.533.008-1.158.36-1.6 1.025Z"/>
  <path fill="url(#aP)" d="M19.444 9.648c.659-.582 1.2-1.065 1.75-1.69-.356-.042-.684-.17-1.044-.301.084.319.08.591-.055.765-.316.425-1.095-.243-1.612-.994-.19-.272-.375-.584-.467-.881-.447-.28-.745-.472-1.164-.705 1.063 1.377 1.938 2.846 2.592 3.806Z"/>
  <path fill="url(#aQ)" d="M11.334 5.561c.99.634 1.988 1.397 2.958 2.264.735-.746 1.656-1.397 2.555-1.984-.438-.234-.95-.409-1.374-.534.071.381.021.769-.276 1.058-.475.482-1.343.384-1.946-.09a1.437 1.437 0 0 1-.527-1.054c-.448.078-.88.194-1.39.34Z"/>
  <path fill="url(#aR)" d="M24.964 7.368c.042.272.004.567-.108.852-.377.943-1.148 1.235-1.94.591a1.35 1.35 0 0 1-.503-.821c-.406.02-.805.008-1.22-.033a17.683 17.683 0 0 0 2.98 2.407c.623-.98 1.262-2.19 1.946-3.716a6.074 6.074 0 0 1-1.155.72Z"/>
  <path fill="url(#aS)" d="M10.028 6.063c.032.39-.076.877-.335 1.314-.579 1.023-1.535 1.45-2.204.963-.227-.162-.33-.481-.32-.856-.44.159-.82.299-1.39.393.733.661 1.73 1.368 2.89 2.003.947-1.474 1.804-3.018 2.663-4.32-.483.134-.91.31-1.304.503Z"/>
  <path fill="url(#aT)" d="M8.466 4.07c.909.374 1.889.872 2.859 1.49.812-1.209 1.665-2.258 2.576-2.817a7.83 7.83 0 0 0-1.098-.082c-1.355-.005-2.754.389-4.337 1.41Z"/>
  <path fill="url(#aU)" d="M23.103 5.139c.72.509 1.974 1.145 3.012 1.507-.33-1.482-.36-2.65-.36-2.65s-1.39.797-2.652 1.143Z"/>
  <path fill="url(#aV)" d="M21.195 7.955c.691-.787 1.32-1.617 1.904-2.813-1.262.343-2.764.27-4.535-.378 1.069 1.083 1.895 2.444 2.63 3.19Z"/>
  <path fill="url(#aW)" d="M16.85 5.845c.556-.36 1.08-.772 1.714-1.078-1.78-.657-2.917-1.77-4.657-2.026.908.677 1.993 1.878 2.944 3.104Z"/>
  <path fill="url(#aX)" d="m5.78 5.007.002 2.866c.838-.78 1.984-2.56 2.678-3.8-1.338.856-2.68.934-2.68.934Z"/>
  <defs>
    <linearGradient id="a" x1="14.073" x2="24.142" y1="7.184" y2="5.79" gradientUnits="userSpaceOnUse">
      <stop stop-color="#E30918"/>
      <stop offset=".5" stop-color="#9C1006"/>
      <stop offset="1" stop-color="#E30918"/>
    </linearGradient>
    <linearGradient id="b" x1="14.495" x2="24.531" y1="10.305" y2="8.915" gradientUnits="userSpaceOnUse">
      <stop stop-color="#E30918"/>
      <stop offset=".5" stop-color="#9C1006"/>
      <stop offset="1" stop-color="#E30918"/>
    </linearGradient>
    <linearGradient id="c" x1="15.027" x2="25.398" y1="15.265" y2="13.502" gradientUnits="userSpaceOnUse">
      <stop stop-color="#144391"/>
      <stop offset=".5" stop-color="#212A72"/>
      <stop offset="1" stop-color="#144391"/>
    </linearGradient>
    <linearGradient id="d" x1="15.025" x2="24.99" y1="12.968" y2="11.58" gradientUnits="userSpaceOnUse">
      <stop stop-color="#3FA3DC"/>
      <stop offset=".5" stop-color="#2A78AA"/>
      <stop offset="1" stop-color="#3FA3DC"/>
    </linearGradient>
    <linearGradient id="e" x1="14.92" x2="24.008" y1="15.529" y2="14.308" gradientUnits="userSpaceOnUse">
      <stop stop-color="#087BC0"/>
      <stop offset=".53" stop-color="#005D99"/>
      <stop offset="1" stop-color="#087BC0"/>
    </linearGradient>
    <linearGradient id="f" x1="13.673" x2="23.896" y1="12.333" y2="10.891" gradientUnits="userSpaceOnUse">
      <stop stop-color="#F39205"/>
      <stop offset=".5" stop-color="#D67A00"/>
      <stop offset="1" stop-color="#F39205"/>
    </linearGradient>
    <linearGradient id="g" x1="14.562" x2="24.598" y1="10.791" y2="9.401" gradientUnits="userSpaceOnUse">
      <stop stop-color="#E30918"/>
      <stop offset=".5" stop-color="#9C1006"/>
      <stop offset="1" stop-color="#E30918"/>
    </linearGradient>
    <linearGradient id="h" x1="14.863" x2="25.028" y1="13.014" y2="11.648" gradientUnits="userSpaceOnUse">
      <stop stop-color="#087BC0"/>
      <stop offset=".5" stop-color="#005D99"/>
      <stop offset="1" stop-color="#087BC0"/>
    </linearGradient>
    <linearGradient id="i" x1="1.551" x2="11.729" y1="20.832" y2="19.341" gradientUnits="userSpaceOnUse">
      <stop stop-color="#009E4C"/>
      <stop offset=".5" stop-color="#007E38"/>
      <stop offset="1" stop-color="#009E4C"/>
    </linearGradient>
    <linearGradient id="j" x1="15.697" x2="25.837" y1="16.695" y2="15.038" gradientUnits="userSpaceOnUse">
      <stop stop-color="#fff"/>
      <stop offset=".5" stop-color="#D0D0D0"/>
      <stop offset="1" stop-color="#fff"/>
    </linearGradient>
    <linearGradient id="k" x1="14.229" x2="24.334" y1="15.151" y2="13.752" gradientUnits="userSpaceOnUse">
      <stop stop-color="#E30918"/>
      <stop offset=".5" stop-color="#9C1006"/>
      <stop offset="1" stop-color="#E30918"/>
    </linearGradient>
    <linearGradient id="l" x1="15.377" x2="26.049" y1="18.658" y2="17.224" gradientUnits="userSpaceOnUse">
      <stop stop-color="#087BC0"/>
      <stop offset=".5" stop-color="#005D99"/>
      <stop offset="1" stop-color="#087BC0"/>
    </linearGradient>
    <linearGradient id="m" x1="5.097" x2="15.215" y1="20.986" y2="19.62" gradientUnits="userSpaceOnUse">
      <stop stop-color="#008045"/>
      <stop offset=".5" stop-color="#006231"/>
      <stop offset="1" stop-color="#008045"/>
    </linearGradient>
    <linearGradient id="n" x1="15.246" x2="25.516" y1="18.82" y2="17.433" gradientUnits="userSpaceOnUse">
      <stop stop-color="#008045"/>
      <stop offset=".45" stop-color="#006231"/>
      <stop offset="1" stop-color="#008045"/>
    </linearGradient>
    <linearGradient id="o" x1="15.855" x2="26.091" y1="20.424" y2="19.042" gradientUnits="userSpaceOnUse">
      <stop stop-color="#008045"/>
      <stop offset=".5" stop-color="#006231"/>
      <stop offset="1" stop-color="#008045"/>
    </linearGradient>
    <linearGradient id="p" x1="15.826" x2="24.917" y1="20.73" y2="19.399" gradientUnits="userSpaceOnUse">
      <stop stop-color="#009E4C"/>
      <stop offset=".5" stop-color="#007E38"/>
      <stop offset="1" stop-color="#009E4C"/>
    </linearGradient>
    <linearGradient id="q" x1="17.192" x2="27.468" y1="24.226" y2="22.548" gradientUnits="userSpaceOnUse">
      <stop stop-color="#fff"/>
      <stop offset=".5" stop-color="#D0D0D0"/>
      <stop offset="1" stop-color="#fff"/>
    </linearGradient>
    <linearGradient id="r" x1="15.014" x2="24.935" y1="12.575" y2="10.954" gradientUnits="userSpaceOnUse">
      <stop stop-color="#fff"/>
      <stop offset=".5" stop-color="#D0D0D0"/>
      <stop offset="1" stop-color="#fff"/>
    </linearGradient>
    <linearGradient id="s" x1="16.572" x2="27.221" y1="23.793" y2="22.053" gradientUnits="userSpaceOnUse">
      <stop stop-color="#fff"/>
      <stop offset=".5" stop-color="#D0D0D0"/>
      <stop offset="1" stop-color="#fff"/>
    </linearGradient>
    <linearGradient id="t" x1="15.847" x2="26.232" y1="20.192" y2="18.495" gradientUnits="userSpaceOnUse">
      <stop stop-color="#fff"/>
      <stop offset=".5" stop-color="#D0D0D0"/>
      <stop offset="1" stop-color="#fff"/>
    </linearGradient>
    <linearGradient id="u" x1="15.172" x2="25.19" y1="13.632" y2="11.929" gradientUnits="userSpaceOnUse">
      <stop stop-color="#144391"/>
      <stop offset=".41" stop-color="#212A72"/>
      <stop offset="1" stop-color="#144391"/>
    </linearGradient>
    <linearGradient id="v" x1="13.173" x2="23.121" y1="17.87" y2="16.179" gradientUnits="userSpaceOnUse">
      <stop stop-color="#FFDD04"/>
      <stop offset=".5" stop-color="#CA9800"/>
      <stop offset="1" stop-color="#FFDD04"/>
    </linearGradient>
    <linearGradient id="w" x1="15.602" x2="25.47" y1="16.32" y2="14.642" gradientUnits="userSpaceOnUse">
      <stop stop-color="#144391"/>
      <stop offset=".5" stop-color="#212A72"/>
      <stop offset="1" stop-color="#144391"/>
    </linearGradient>
    <linearGradient id="x" x1="15.068" x2="24.859" y1="13.603" y2="11.938" gradientUnits="userSpaceOnUse">
      <stop stop-color="#144391"/>
      <stop offset=".5" stop-color="#212A72"/>
      <stop offset="1" stop-color="#144391"/>
    </linearGradient>
    <linearGradient id="y" x1="14.22" x2="24.168" y1="8.001" y2="6.309" gradientUnits="userSpaceOnUse">
      <stop stop-color="#E30918"/>
      <stop offset=".5" stop-color="#9C1006"/>
      <stop offset="1" stop-color="#E30918"/>
    </linearGradient>
    <linearGradient id="z" x1="15.449" x2="25.416" y1="22.845" y2="21.15" gradientUnits="userSpaceOnUse">
      <stop stop-color="#144391"/>
      <stop offset=".5" stop-color="#212A72"/>
      <stop offset="1" stop-color="#144391"/>
    </linearGradient>
    <linearGradient id="A" x1="15.988" x2="25.935" y1="18.394" y2="16.702" gradientUnits="userSpaceOnUse">
      <stop stop-color="#144391"/>
      <stop offset=".5" stop-color="#212A72"/>
      <stop offset="1" stop-color="#144391"/>
    </linearGradient>
    <linearGradient id="B" x1="15.522" x2="25.469" y1="15.653" y2="13.962" gradientUnits="userSpaceOnUse">
      <stop stop-color="#144391"/>
      <stop offset=".5" stop-color="#212A72"/>
      <stop offset="1" stop-color="#144391"/>
    </linearGradient>
    <linearGradient id="C" x1="15.184" x2="25.483" y1="12.377" y2="10.626" gradientUnits="userSpaceOnUse">
      <stop stop-color="#144391"/>
      <stop offset=".5" stop-color="#212A72"/>
      <stop offset="1" stop-color="#144391"/>
    </linearGradient>
    <linearGradient id="D" x1="14.766" x2="25.449" y1="11.175" y2="9.358" gradientUnits="userSpaceOnUse">
      <stop stop-color="#144391"/>
      <stop offset=".5" stop-color="#212A72"/>
      <stop offset="1" stop-color="#144391"/>
    </linearGradient>
    <linearGradient id="E" x1="14.178" x2="24.162" y1="8.092" y2="6.548" gradientUnits="userSpaceOnUse">
      <stop stop-color="#AF1923"/>
      <stop offset=".5" stop-color="#780D0B"/>
      <stop offset="1" stop-color="#AF1923"/>
    </linearGradient>
    <linearGradient id="F" x1="13.822" x2="23.847" y1="17.709" y2="16.159" gradientUnits="userSpaceOnUse">
      <stop stop-color="#AF1923"/>
      <stop offset=".5" stop-color="#780D0B"/>
      <stop offset="1" stop-color="#AF1923"/>
    </linearGradient>
    <linearGradient id="G" x1="14.886" x2="24.981" y1="21.055" y2="19.494" gradientUnits="userSpaceOnUse">
      <stop stop-color="#AF1923"/>
      <stop offset=".4" stop-color="#780D0B"/>
      <stop offset="1" stop-color="#AF1923"/>
    </linearGradient>
    <linearGradient id="H" x1="14.615" x2="23.808" y1="8.269" y2="6.848" gradientUnits="userSpaceOnUse">
      <stop stop-color="#AF1923"/>
      <stop offset=".5" stop-color="#780D0B"/>
      <stop offset="1" stop-color="#AF1923"/>
    </linearGradient>
    <linearGradient id="I" x1="14.471" x2="24.473" y1="10.132" y2="8.585" gradientUnits="userSpaceOnUse">
      <stop stop-color="#AF1923"/>
      <stop offset=".5" stop-color="#780D0B"/>
      <stop offset="1" stop-color="#AF1923"/>
    </linearGradient>
    <linearGradient id="J" x1="14.145" x2="24.508" y1="6.557" y2="4.955" gradientUnits="userSpaceOnUse">
      <stop stop-color="#fff"/>
      <stop offset=".5" stop-color="#D0D0D0"/>
      <stop offset="1" stop-color="#fff"/>
    </linearGradient>
    <linearGradient id="K" x1="16.227" x2="26.884" y1="25.192" y2="23.545" gradientUnits="userSpaceOnUse">
      <stop stop-color="#fff"/>
      <stop offset=".5" stop-color="#D0D0D0"/>
      <stop offset="1" stop-color="#fff"/>
    </linearGradient>
    <linearGradient id="L" x1="13.581" x2="23.613" y1="9.835" y2="8.437" gradientUnits="userSpaceOnUse">
      <stop stop-color="#3FA3DC"/>
      <stop offset=".5" stop-color="#2A78AA"/>
      <stop offset="1" stop-color="#3FA3DC"/>
    </linearGradient>
    <linearGradient id="M" x1="15.969" x2="25.935" y1="23.325" y2="21.936" gradientUnits="userSpaceOnUse">
      <stop stop-color="#3FA3DC"/>
      <stop offset=".5" stop-color="#2A78AA"/>
      <stop offset="1" stop-color="#3FA3DC"/>
    </linearGradient>
    <linearGradient id="N" x1="14.145" x2="24.556" y1="9.657" y2="8.206" gradientUnits="userSpaceOnUse">
      <stop stop-color="#009E4C"/>
      <stop offset=".5" stop-color="#007E38"/>
      <stop offset="1" stop-color="#009E4C"/>
    </linearGradient>
    <linearGradient id="O" x1="15.83" x2="25.793" y1="18.746" y2="17.358" gradientUnits="userSpaceOnUse">
      <stop stop-color="#3FA3DC"/>
      <stop offset=".5" stop-color="#2A78AA"/>
      <stop offset="1" stop-color="#3FA3DC"/>
    </linearGradient>
    <linearGradient id="P" x1="13.77" x2="23.771" y1="19.006" y2="17.673" gradientUnits="userSpaceOnUse">
      <stop stop-color="#144391"/>
      <stop offset=".5" stop-color="#212A72"/>
      <stop offset="1" stop-color="#144391"/>
    </linearGradient>
    <linearGradient id="Q" x1="13.905" x2="24.251" y1="9.995" y2="8.616" gradientUnits="userSpaceOnUse">
      <stop stop-color="#FFDD04"/>
      <stop offset=".5" stop-color="#CA9800"/>
      <stop offset="1" stop-color="#FFDD04"/>
    </linearGradient>
    <linearGradient id="R" x1="14.408" x2="24.756" y1="22.823" y2="21.443" gradientUnits="userSpaceOnUse">
      <stop stop-color="#FDC301"/>
      <stop offset=".45" stop-color="#C78800"/>
      <stop offset="1" stop-color="#FDC301"/>
    </linearGradient>
    <linearGradient id="S" x1="16.234" x2="26.426" y1="23.777" y2="22.419" gradientUnits="userSpaceOnUse">
      <stop stop-color="#FFDD04"/>
      <stop offset=".5" stop-color="#CA9800"/>
      <stop offset="1" stop-color="#FFDD04"/>
    </linearGradient>
    <linearGradient id="T" x1="16.765" x2="26.646" y1="25.645" y2="24.328" gradientUnits="userSpaceOnUse">
      <stop stop-color="#FFDD04"/>
      <stop offset=".5" stop-color="#CA9800"/>
      <stop offset="1" stop-color="#FFDD04"/>
    </linearGradient>
    <linearGradient id="U" x1="-6.229" x2="13.744" y1="27.863" y2="25.2" gradientUnits="userSpaceOnUse">
      <stop stop-color="#FFDD04"/>
      <stop offset=".5" stop-color="#CA9800"/>
      <stop offset="1" stop-color="#FFDD04"/>
    </linearGradient>
    <linearGradient id="V" x1="10.067" x2="20.279" y1="23.012" y2="19.808" gradientUnits="userSpaceOnUse">
      <stop stop-color="#009E4C"/>
      <stop offset=".5" stop-color="#007E38"/>
      <stop offset="1" stop-color="#009E4C"/>
    </linearGradient>
    <linearGradient id="W" x1="9.234" x2="19.509" y1="13.903" y2="10.68" gradientUnits="userSpaceOnUse">
      <stop stop-color="#009E4C"/>
      <stop offset=".5" stop-color="#007E38"/>
      <stop offset="1" stop-color="#009E4C"/>
    </linearGradient>
    <linearGradient id="X" x1="13.737" x2="23.912" y1="4.526" y2="3.036" gradientUnits="userSpaceOnUse">
      <stop stop-color="#009E4C"/>
      <stop offset=".5" stop-color="#007E38"/>
      <stop offset="1" stop-color="#009E4C"/>
    </linearGradient>
    <linearGradient id="Y" x1="15.323" x2="25.439" y1="15.418" y2="13.937" gradientUnits="userSpaceOnUse">
      <stop stop-color="#009E4C"/>
      <stop offset=".5" stop-color="#007E38"/>
      <stop offset="1" stop-color="#009E4C"/>
    </linearGradient>
    <linearGradient id="Z" x1="16.588" x2="27.041" y1="24.04" y2="22.416" gradientUnits="userSpaceOnUse">
      <stop stop-color="#FDC301"/>
      <stop offset=".45" stop-color="#C78800"/>
      <stop offset="1" stop-color="#FDC301"/>
    </linearGradient>
    <linearGradient id="aa" x1="15.936" x2="26.444" y1="18.352" y2="16.719" gradientUnits="userSpaceOnUse">
      <stop stop-color="#FDC301"/>
      <stop offset=".5" stop-color="#C78800"/>
      <stop offset="1" stop-color="#FDC301"/>
    </linearGradient>
    <linearGradient id="ab" x1="12.562" x2="20.287" y1="15.706" y2="14.676" gradientUnits="userSpaceOnUse">
      <stop stop-color="#144391"/>
      <stop offset=".5" stop-color="#212A72"/>
      <stop offset="1" stop-color="#144391"/>
    </linearGradient>
    <linearGradient id="ac" x1="16.84" x2="27.061" y1="25.555" y2="23.967" gradientUnits="userSpaceOnUse">
      <stop stop-color="#FDC301"/>
      <stop offset=".5" stop-color="#C78800"/>
      <stop offset="1" stop-color="#FDC301"/>
    </linearGradient>
    <linearGradient id="ad" x1="16.768" x2="26.996" y1="25.089" y2="23.501" gradientUnits="userSpaceOnUse">
      <stop stop-color="#FDC301"/>
      <stop offset=".5" stop-color="#C78800"/>
      <stop offset="1" stop-color="#FDC301"/>
    </linearGradient>
    <linearGradient id="ae" x1="16.608" x2="26.545" y1="24.85" y2="23.426" gradientUnits="userSpaceOnUse">
      <stop stop-color="#EA5045"/>
      <stop offset=".5" stop-color="#C53A31"/>
      <stop offset="1" stop-color="#EA5045"/>
    </linearGradient>
    <linearGradient id="af" x1="17.512" x2="27.58" y1="25.345" y2="23.902" gradientUnits="userSpaceOnUse">
      <stop stop-color="#E30918"/>
      <stop offset=".5" stop-color="#9C1006"/>
      <stop offset="1" stop-color="#E30918"/>
    </linearGradient>
    <linearGradient id="ag" x1="15.571" x2="25.56" y1="17.178" y2="15.746" gradientUnits="userSpaceOnUse">
      <stop stop-color="#EA5045"/>
      <stop offset=".5" stop-color="#C53A31"/>
      <stop offset="1" stop-color="#EA5045"/>
    </linearGradient>
    <linearGradient id="ah" x1="13.978" x2="24.693" y1="5.9" y2="4.364" gradientUnits="userSpaceOnUse">
      <stop stop-color="#EA5045"/>
      <stop offset=".5" stop-color="#C53A31"/>
      <stop offset="1" stop-color="#EA5045"/>
    </linearGradient>
    <linearGradient id="ai" x1="16.134" x2="26.196" y1="21.196" y2="19.754" gradientUnits="userSpaceOnUse">
      <stop stop-color="#fff"/>
      <stop offset=".5" stop-color="#D0D0D0"/>
      <stop offset="1" stop-color="#fff"/>
    </linearGradient>
    <linearGradient id="aj" x1="13.929" x2="23.34" y1="17.912" y2="16.563" gradientUnits="userSpaceOnUse">
      <stop stop-color="#FFDD04"/>
      <stop offset=".5" stop-color="#CA9800"/>
      <stop offset="1" stop-color="#FFDD04"/>
    </linearGradient>
    <linearGradient id="ak" x1="15.07" x2="25.21" y1="24.183" y2="22.821" gradientUnits="userSpaceOnUse">
      <stop stop-color="#087BC0"/>
      <stop offset=".5" stop-color="#005D99"/>
      <stop offset="1" stop-color="#087BC0"/>
    </linearGradient>
    <linearGradient id="al" x1="14.155" x2="24.614" y1="9.34" y2="7.414" gradientUnits="userSpaceOnUse">
      <stop stop-color="#fff"/>
      <stop offset=".5" stop-color="#A8A8A7"/>
      <stop offset="1" stop-color="#fff"/>
    </linearGradient>
    <linearGradient id="am" x1="16.47" x2="24.619" y1="17.436" y2="15.936" gradientUnits="userSpaceOnUse">
      <stop stop-color="#fff"/>
      <stop offset=".48" stop-color="#A8A8A7"/>
      <stop offset="1" stop-color="#fff"/>
    </linearGradient>
    <linearGradient id="an" x1="30.76" x2="21.79" y1="9.794" y2="12.194" gradientUnits="userSpaceOnUse">
      <stop stop-color="#D0D0D0"/>
      <stop offset="1" stop-color="#fff"/>
    </linearGradient>
    <linearGradient id="ao" x1="31.073" x2="24.407" y1="20.35" y2="21.989" gradientUnits="userSpaceOnUse">
      <stop stop-color="#D0D0D0"/>
      <stop offset="1" stop-color="#fff"/>
    </linearGradient>
    <linearGradient id="ap" x1="26.94" x2="21.916" y1="16.04" y2="17.788" gradientUnits="userSpaceOnUse">
      <stop stop-color="#D0D0D0"/>
      <stop offset="1" stop-color="#fff"/>
    </linearGradient>
    <linearGradient id="aq" x1="13.162" x2="23.621" y1="12.708" y2="10.783" gradientUnits="userSpaceOnUse">
      <stop stop-color="#fff"/>
      <stop offset=".5" stop-color="#A8A8A7"/>
      <stop offset="1" stop-color="#fff"/>
    </linearGradient>
    <linearGradient id="ar" x1="13.889" x2="23.925" y1="11.936" y2="10.547" gradientUnits="userSpaceOnUse">
      <stop stop-color="#E30918"/>
      <stop offset=".5" stop-color="#9C1006"/>
      <stop offset="1" stop-color="#E30918"/>
    </linearGradient>
    <linearGradient id="as" x1="15.678" x2="25.714" y1="18.849" y2="17.46" gradientUnits="userSpaceOnUse">
      <stop stop-color="#E30918"/>
      <stop offset=".5" stop-color="#9C1006"/>
      <stop offset="1" stop-color="#E30918"/>
    </linearGradient>
    <linearGradient id="at" x1="13.775" x2="23.811" y1="5.107" y2="3.718" gradientUnits="userSpaceOnUse">
      <stop stop-color="#144391"/>
      <stop offset=".5" stop-color="#212A72"/>
      <stop offset="1" stop-color="#144391"/>
    </linearGradient>
    <linearGradient id="au" x1="13.543" x2="23.578" y1="13.752" y2="12.363" gradientUnits="userSpaceOnUse">
      <stop stop-color="#E30918"/>
      <stop offset=".5" stop-color="#9C1006"/>
      <stop offset="1" stop-color="#E30918"/>
    </linearGradient>
    <linearGradient id="av" x1="14.056" x2="24.097" y1="7.149" y2="5.759" gradientUnits="userSpaceOnUse">
      <stop stop-color="#E30918"/>
      <stop offset=".5" stop-color="#9C1006"/>
      <stop offset="1" stop-color="#E30918"/>
    </linearGradient>
    <linearGradient id="aw" x1="15.896" x2="25.932" y1="20.43" y2="19.04" gradientUnits="userSpaceOnUse">
      <stop stop-color="#E30918"/>
      <stop offset=".5" stop-color="#9C1006"/>
      <stop offset="1" stop-color="#E30918"/>
    </linearGradient>
    <linearGradient id="ax" x1="13.831" x2="24.646" y1="8.251" y2="6.754" gradientUnits="userSpaceOnUse">
      <stop stop-color="#E30918"/>
      <stop offset=".5" stop-color="#9C1006"/>
      <stop offset="1" stop-color="#E30918"/>
    </linearGradient>
    <linearGradient id="ay" x1="16.157" x2="26.38" y1="22.875" y2="21.46" gradientUnits="userSpaceOnUse">
      <stop stop-color="#E30918"/>
      <stop offset=".5" stop-color="#9C1006"/>
      <stop offset="1" stop-color="#E30918"/>
    </linearGradient>
    <linearGradient id="az" x1="14.928" x2="24.964" y1="13.592" y2="12.203" gradientUnits="userSpaceOnUse">
      <stop stop-color="#E30918"/>
      <stop offset=".5" stop-color="#9C1006"/>
      <stop offset="1" stop-color="#E30918"/>
    </linearGradient>
    <linearGradient id="aA" x1="3.759" x2="9.197" y1="24.105" y2="22.841" gradientUnits="userSpaceOnUse">
      <stop stop-color="#D0D0D0"/>
      <stop offset="1" stop-color="#fff"/>
    </linearGradient>
    <linearGradient id="aB" x1="2.709" x2="8.181" y1="12.763" y2="11.491" gradientUnits="userSpaceOnUse">
      <stop stop-color="#D0D0D0"/>
      <stop offset="1" stop-color="#fff"/>
    </linearGradient>
    <linearGradient id="aC" x1="5.814" x2="9.485" y1="17.905" y2="17.102" gradientUnits="userSpaceOnUse">
      <stop stop-color="#D0D0D0"/>
      <stop offset="1" stop-color="#fff"/>
    </linearGradient>
    <linearGradient id="aD" x1="5.988" x2="12.221" y1="23.536" y2="21.572" gradientUnits="userSpaceOnUse">
      <stop stop-color="#D0D0D0"/>
      <stop offset="1" stop-color="#fff"/>
    </linearGradient>
    <linearGradient id="aE" x1="4.286" x2="10.486" y1="17.981" y2="16.027" gradientUnits="userSpaceOnUse">
      <stop stop-color="#D0D0D0"/>
      <stop offset="1" stop-color="#fff"/>
    </linearGradient>
    <linearGradient id="aF" x1="16.21" x2="26.243" y1="22.55" y2="21.17" gradientUnits="userSpaceOnUse">
      <stop stop-color="#fff"/>
      <stop offset=".46" stop-color="#A8A8A7"/>
      <stop offset="1" stop-color="#D0D0D0"/>
    </linearGradient>
    <linearGradient id="aG" x1="14.623" x2="24.656" y1="15.086" y2="13.706" gradientUnits="userSpaceOnUse">
      <stop stop-color="#fff"/>
      <stop offset=".49" stop-color="#A8A8A7"/>
      <stop offset="1" stop-color="#D0D0D0"/>
    </linearGradient>
    <linearGradient id="aH" x1="14.155" x2="24.187" y1="9.754" y2="8.374" gradientUnits="userSpaceOnUse">
      <stop stop-color="#fff"/>
      <stop offset=".49" stop-color="#A8A8A7"/>
      <stop offset="1" stop-color="#D0D0D0"/>
    </linearGradient>
    <linearGradient id="aI" x1="15.761" x2="25.138" y1="20.528" y2="19.238" gradientUnits="userSpaceOnUse">
      <stop stop-color="#fff"/>
      <stop offset=".46" stop-color="#A8A8A7"/>
      <stop offset="1" stop-color="#D0D0D0"/>
    </linearGradient>
    <linearGradient id="aJ" x1="16.794" x2="26.807" y1="23.187" y2="21.484" gradientUnits="userSpaceOnUse">
      <stop stop-color="#144391"/>
      <stop offset=".5" stop-color="#212A72"/>
      <stop offset="1" stop-color="#144391"/>
    </linearGradient>
    <linearGradient id="aK" x1="14.786" x2="24.707" y1="11.179" y2="9.558" gradientUnits="userSpaceOnUse">
      <stop stop-color="#fff"/>
      <stop offset=".5" stop-color="#D0D0D0"/>
      <stop offset="1" stop-color="#fff"/>
    </linearGradient>
    <linearGradient id="aL" x1="14.352" x2="24.273" y1="8.522" y2="6.901" gradientUnits="userSpaceOnUse">
      <stop stop-color="#fff"/>
      <stop offset=".5" stop-color="#D0D0D0"/>
      <stop offset="1" stop-color="#fff"/>
    </linearGradient>
    <linearGradient id="aM" x1="13.657" x2="23.787" y1="4.727" y2="3.004" gradientUnits="userSpaceOnUse">
      <stop stop-color="#144391"/>
      <stop offset=".5" stop-color="#212A72"/>
      <stop offset="1" stop-color="#144391"/>
    </linearGradient>
    <linearGradient id="aN" x1="14.127" x2="24.302" y1="7.265" y2="5.908" gradientUnits="userSpaceOnUse">
      <stop stop-color="#FFDD04"/>
      <stop offset=".5" stop-color="#CA9800"/>
      <stop offset="1" stop-color="#FFDD04"/>
    </linearGradient>
    <linearGradient id="aO" x1="13.729" x2="23.95" y1="5.525" y2="3.938" gradientUnits="userSpaceOnUse">
      <stop stop-color="#FDC301"/>
      <stop offset=".5" stop-color="#C78800"/>
      <stop offset="1" stop-color="#FDC301"/>
    </linearGradient>
    <linearGradient id="aP" x1="14.285" x2="24.233" y1="8.382" y2="6.691" gradientUnits="userSpaceOnUse">
      <stop stop-color="#144391"/>
      <stop offset=".5" stop-color="#212A72"/>
      <stop offset="1" stop-color="#144391"/>
    </linearGradient>
    <linearGradient id="aQ" x1="13.508" x2="23.509" y1="6.523" y2="5.19" gradientUnits="userSpaceOnUse">
      <stop stop-color="#FFDD04"/>
      <stop offset=".5" stop-color="#CA9800"/>
      <stop offset="1" stop-color="#FFDD04"/>
    </linearGradient>
    <linearGradient id="aR" x1="14.443" x2="24.663" y1="10.119" y2="8.531" gradientUnits="userSpaceOnUse">
      <stop stop-color="#FDC301"/>
      <stop offset=".5" stop-color="#C78800"/>
      <stop offset="1" stop-color="#FDC301"/>
    </linearGradient>
    <linearGradient id="aS" x1="14.049" x2="24.103" y1="7.193" y2="5.842" gradientUnits="userSpaceOnUse">
      <stop stop-color="#009E4C"/>
      <stop offset=".5" stop-color="#007E38"/>
      <stop offset="1" stop-color="#009E4C"/>
    </linearGradient>
    <linearGradient id="aT" x1="8.442" x2="20.98" y1="4.704" y2="2.395" gradientUnits="userSpaceOnUse">
      <stop stop-color="#fff"/>
      <stop offset="1" stop-color="#A8A8A7"/>
    </linearGradient>
    <linearGradient id="aU" x1="25.964" x2="22.341" y1="5.284" y2="6.961" gradientUnits="userSpaceOnUse">
      <stop stop-color="#D0D0D0"/>
      <stop offset="1" stop-color="#fff"/>
    </linearGradient>
    <linearGradient id="aV" x1="13.011" x2="23.519" y1="7.587" y2="5.652" gradientUnits="userSpaceOnUse">
      <stop stop-color="#fff"/>
      <stop offset=".5" stop-color="#A8A8A7"/>
      <stop offset="1" stop-color="#fff"/>
    </linearGradient>
    <linearGradient id="aW" x1="12.469" x2="23.607" y1="4.813" y2="2.762" gradientUnits="userSpaceOnUse">
      <stop stop-color="#fff"/>
      <stop offset=".54" stop-color="#A8A8A7"/>
      <stop offset="1" stop-color="#fff"/>
    </linearGradient>
    <linearGradient id="aX" x1="5.439" x2="10.008" y1="6.5" y2="5.024" gradientUnits="userSpaceOnUse">
      <stop stop-color="#D0D0D0"/>
      <stop offset="1" stop-color="#fff"/>
    </linearGradient>
  </defs>
</svg>
